<?xml version="1.0" standalone="no"?><!DOCTYPE svg PUBLIC "-//W3C//DTD SVG 1.1//EN" "http://www.w3.org/Graphics/SVG/1.1/DTD/svg11.dtd"><svg t="1611809566108" class="icon" viewBox="0 0 1160 1024" version="1.1" xmlns="http://www.w3.org/2000/svg" p-id="3845" xmlns:xlink="http://www.w3.org/1999/xlink" width="226.5625" height="200"><defs><style type="text/css"></style></defs><path d="M709.051733 153.6L842.4448 20.138667a51.2 51.2 0 0 1 72.430933 0l217.1904 217.224533a51.2 51.2 0 0 1 0 72.3968L938.666667 503.1936V972.8A51.2 51.2 0 0 1 887.466667 1024H273.066667a51.2 51.2 0 0 1-51.2-51.2V503.1936L28.433067 309.76a51.2 51.2 0 0 1 0-72.3968L245.623467 20.138667a51.2 51.2 0 0 1 72.465066 0l133.393067 133.461333h257.570133z" p-id="3846"></path></svg>