<?xml version="1.0" standalone="no"?><!DOCTYPE svg PUBLIC "-//W3C//DTD SVG 1.1//EN" "http://www.w3.org/Graphics/SVG/1.1/DTD/svg11.dtd"><svg t="1611669098508" class="icon" viewBox="0 0 1024 1024" version="1.1" xmlns="http://www.w3.org/2000/svg" p-id="3931" xmlns:xlink="http://www.w3.org/1999/xlink" width="200" height="200"><defs><style type="text/css"></style></defs><path d="M787.692308 157.538462a78.769231 78.769231 0 0 1 78.76923 78.76923v586.83077a78.769231 78.769231 0 0 1-127.251692 62.109538l-177.467077-138.633846a78.769231 78.769231 0 0 0-96.728615-0.157539l-180.460308 139.776A78.769231 78.769231 0 0 1 157.538462 823.965538V236.307692a78.769231 78.769231 0 0 1 78.76923-78.76923h551.384616z m0 39.384615H236.307692a39.384615 39.384615 0 0 0-39.108923 34.776615L196.923077 236.307692v587.618462a39.384615 39.384615 0 0 0 59.392 33.949538l4.096-2.756923 180.460308-139.815384a118.153846 118.153846 0 0 1 138.594461-4.450462l6.498462 4.726154 177.467077 138.633846a39.384615 39.384615 0 0 0 63.40923-26.466461L827.076923 823.138462V236.307692a39.384615 39.384615 0 0 0-34.776615-39.108923L787.692308 196.923077z m-98.461539 236.307692a19.692308 19.692308 0 0 1 3.544616 39.069539L689.230769 472.615385h-354.461538a19.692308 19.692308 0 0 1-3.544616-39.069539L334.769231 433.230769h354.461538z m0-118.153846a19.692308 19.692308 0 0 1 3.544616 39.069539L689.230769 354.461538h-354.461538a19.692308 19.692308 0 0 1-3.544616-39.069538L334.769231 315.076923h354.461538z" fill="#333333" p-id="3932"></path></svg>